<svg width="42" height="54" viewBox="0 0 42 54" fill="none" xmlns="http://www.w3.org/2000/svg">
<path fill-rule="evenodd" clip-rule="evenodd" d="M25.5041 1.12324L40.1728 15.9152C40.8804 16.6271 41.25 17.5869 41.25 18.5889V50.2031C41.25 52.302 39.6025 54 37.501 54H4.60463C2.50306 54 0.75 52.302 0.75 50.2031V3.79688C0.75 1.69805 2.50306 0 4.60463 0H22.8217C23.355 0 23.8778 0.116016 24.353 0.326953C24.364 0.331848 24.3753 0.336743 24.3868 0.341704C24.4247 0.358121 24.4644 0.375259 24.5008 0.395508C24.5801 0.432422 24.654 0.474609 24.7279 0.516797C25.0078 0.685547 25.2665 0.885937 25.5041 1.12324ZM24.7754 5.82187L35.3783 16.4531H24.7754V5.82187ZM13.6465 37.9678H17.9736V39H12.1016V38.0703L16.1826 32.6494H12.1631V31.6035H17.7686V32.499L13.6465 37.9678ZM20.7764 39H19.5117V31.6035H20.7764V39ZM19.4092 29.6416C19.4092 29.4365 19.4707 29.2633 19.5938 29.1221C19.7214 28.9808 19.9082 28.9102 20.1543 28.9102C20.4004 28.9102 20.5872 28.9808 20.7148 29.1221C20.8424 29.2633 20.9062 29.4365 20.9062 29.6416C20.9062 29.8467 20.8424 30.0176 20.7148 30.1543C20.5872 30.291 20.4004 30.3594 20.1543 30.3594C19.9082 30.3594 19.7214 30.291 19.5938 30.1543C19.4707 30.0176 19.4092 29.8467 19.4092 29.6416ZM29.0547 35.3838C29.0547 36.5094 28.7972 37.4163 28.2822 38.1045C27.7673 38.7926 27.07 39.1367 26.1904 39.1367C25.2926 39.1367 24.5863 38.8519 24.0713 38.2822V41.8438H22.8066V31.6035H23.9619L24.0234 32.4238C24.5384 31.7858 25.2539 31.4668 26.1699 31.4668C27.0586 31.4668 27.7604 31.8018 28.2754 32.4717C28.7949 33.1416 29.0547 34.0736 29.0547 35.2676V35.3838ZM27.79 35.2402C27.79 34.4062 27.6123 33.7477 27.2568 33.2646C26.9014 32.7816 26.4137 32.54 25.7939 32.54C25.0283 32.54 24.4541 32.8796 24.0713 33.5586V37.0928C24.4495 37.7673 25.0283 38.1045 25.8076 38.1045C26.4137 38.1045 26.8945 37.8652 27.25 37.3867C27.61 36.9036 27.79 36.1881 27.79 35.2402Z" fill="#8B89E8"/>
</svg>
